<svg width="260" height="64" viewBox="0 0 260 64" fill="none" xmlns="http://www.w3.org/2000/svg">
  <defs>
    <linearGradient id="ilGradient" x1="6" y1="6" x2="58" y2="58" gradientUnits="userSpaceOnUse">
      <stop stop-color="#3B82F6" />
      <stop offset="1" stop-color="#A855F7" />
    </linearGradient>
  </defs>
  <rect x="2" y="2" width="60" height="60" rx="16" fill="#0B1229" />
  <path d="M22 41L32 36L42 41" stroke="url(#ilGradient)" stroke-width="2.8" stroke-linecap="round" stroke-linejoin="round" />
  <path d="M20 41.5V47C20 48.1 20.9 49 22 49H42C43.1 49 44 48.1 44 47V41.5" stroke="#93C5FD" stroke-width="2" stroke-linecap="round" />
  <path d="M32 14C24.8 14 19 19.8 19 27C19 31 20.8 34.1 23.7 36.3C24.8 37.1 25.4 38.3 25.4 39.6V40.5H38.6V39.6C38.6 38.3 39.2 37.1 40.3 36.3C43.2 34.1 45 31 45 27C45 19.8 39.2 14 32 14Z" stroke="url(#ilGradient)" stroke-width="2.6" stroke-linecap="round" stroke-linejoin="round" />
  <path d="M32 40.5V32.5" stroke="#BFDBFE" stroke-width="2" stroke-linecap="round" />
  <circle cx="32" cy="29" r="1.6" fill="#BFDBFE" />
  <path d="M26.8 25.6H23.8M40.2 25.6H37.2" stroke="#06B6D4" stroke-width="1.9" stroke-linecap="round" />
  <circle cx="22.2" cy="25.6" r="1.2" fill="#22D3EE" />
  <circle cx="41.8" cy="25.6" r="1.2" fill="#22D3EE" />
  <text x="76" y="40" font-family="Inter, Arial, sans-serif" font-size="28" font-weight="800" letter-spacing="-0.02em">
    <tspan fill="#60A5FA">Intelli</tspan><tspan fill="#C084FC">Learn</tspan>
  </text>
</svg>